<svg version="1.1" id="Layer_1" xmlns="http://www.w3.org/2000/svg" xmlns:xlink="http://www.w3.org/1999/xlink" x="0px" y="0px"
	 width="100%" viewBox="0 0 1725 357" enable-background="new 0 0 1725 357" xml:space="preserve">
<path fill="#FFFFFF" opacity="1.000000" stroke="none" 
	d="
M452.000000,1.000000 
	C876.624634,1.000000 1301.249268,1.000000 1725.937012,1.000000 
	C1725.937012,119.946152 1725.937012,238.892334 1725.937012,357.919250 
	C1151.110718,357.919250 576.221497,357.919250 1.166128,357.919250 
	C1.166128,239.122742 1.166128,120.245171 1.166128,1.000000 
	C150.695831,1.000000 300.391968,1.000000 450.544769,1.468657 
	C451.001434,22.412117 451.001434,42.886921 451.001434,63.361725 
	C451.334290,63.360432 451.667145,63.359135 452.000000,63.357838 
	C452.000000,42.571892 452.000000,21.785946 452.000000,1.000000 
M1663.977295,172.071899 
	C1663.929199,161.381516 1663.881104,150.691116 1663.976440,139.073151 
	C1663.976440,128.141418 1663.976440,117.209671 1663.976440,106.299774 
	C1131.689209,106.299774 600.000427,106.299774 68.167137,106.299774 
	C68.167137,117.732262 68.167137,128.866516 68.022751,140.928192 
	C68.070869,151.618591 68.118988,162.308990 68.024277,173.884766 
	C68.071167,176.564590 68.118050,179.244431 67.979057,182.516861 
	C68.044395,182.923767 68.109734,183.330658 68.026009,184.697556 
	C68.073051,192.131927 68.120102,199.566315 68.022804,207.928116 
	C68.070923,218.618546 68.119041,229.308960 68.023674,240.926941 
	C68.023674,251.858566 68.023674,262.790192 68.023674,273.700317 
	C600.310608,273.700317 1131.999512,273.700317 1663.833008,273.700317 
	C1663.833008,262.267944 1663.833008,251.133652 1663.977173,239.071884 
	C1663.929077,228.381454 1663.880981,217.691040 1663.976318,206.073059 
	C1663.928589,195.048492 1663.880859,184.023941 1663.977295,172.071899 
M351.968811,34.876408 
	C352.348969,29.099718 354.502014,25.722300 357.967010,26.097565 
	C363.371918,26.682919 362.927277,31.044067 363.006012,34.828144 
	C363.108795,39.768150 363.031189,44.711903 363.031189,49.699265 
	C365.466797,49.699265 367.348053,49.699265 369.520355,49.699265 
	C369.520355,43.755302 369.537598,38.118752 369.506134,32.482475 
	C369.499664,31.323677 369.371582,30.156715 369.196899,29.009140 
	C368.088654,21.728342 360.701324,18.492653 354.603882,22.654587 
	C353.308746,23.538595 352.206970,24.705864 351.022247,25.737270 
	C345.682709,19.610344 341.762604,19.365667 335.846954,23.543489 
	C332.602814,22.713621 330.408264,22.152245 327.920715,21.515919 
	C327.920715,31.490145 327.920715,40.597198 327.920715,49.682205 
	C330.025726,49.682205 331.919159,49.682205 334.076538,49.682205 
	C334.076538,44.220490 333.937958,39.080654 334.121918,33.952389 
	C334.260193,30.098167 335.353027,26.207434 340.013031,26.164177 
	C344.728088,26.120409 345.150024,30.103231 345.212830,33.725723 
	C345.304443,39.008507 345.236389,44.294052 345.236389,49.619301 
	C347.722870,49.619301 349.741394,49.619301 351.968903,49.619301 
	C351.968903,44.752266 351.968903,40.276085 351.968811,34.876408 
M93.232529,21.535542 
	C93.232529,30.956713 93.232529,40.377884 93.232529,49.707756 
	C95.791908,49.707756 97.708496,49.707756 100.059113,49.707756 
	C100.059113,44.328964 100.059113,39.248566 100.059113,34.298790 
	C104.530045,33.305241 107.206047,35.151917 109.160149,38.470280 
	C110.507660,40.758560 111.872269,43.036758 113.225128,45.321892 
	C116.397682,50.680679 116.396690,50.681267 123.519028,49.258869 
	C119.526611,43.393219 115.674240,37.733318 111.752487,31.971491 
	C112.083412,31.759439 112.748444,31.291969 113.450890,30.889858 
	C118.042969,28.261169 119.913292,24.250544 118.954140,19.142653 
	C118.026360,14.201822 114.232582,11.762260 109.753845,11.293353 
	C104.400032,10.732828 98.942696,11.161126 93.232544,11.161126 
	C93.232544,14.613699 93.232544,17.582645 93.232529,21.535542 
M156.971680,22.065598 
	C159.200928,31.435802 161.430191,40.806007 163.565765,49.782467 
	C166.752808,49.782467 168.713058,49.782467 170.696213,49.782467 
	C172.584763,43.435802 174.412125,37.294712 176.628448,29.846495 
	C178.759995,37.395985 180.534897,43.682308 182.280518,49.864861 
	C184.734207,49.864861 186.706146,49.864861 188.951645,49.864861 
	C191.661667,40.681114 194.352600,31.561974 197.125076,22.166555 
	C194.796951,22.166555 193.008148,22.166555 191.099167,22.166555 
	C189.387222,28.846096 187.710892,35.386677 186.034576,41.927258 
	C185.764130,41.916302 185.493683,41.905346 185.223236,41.894390 
	C183.503769,35.267414 181.784302,28.640438 180.181885,22.464571 
	C175.065079,20.802383 173.444305,22.894117 172.615204,27.134857 
	C171.656174,32.040314 169.896896,36.789322 168.485046,41.606258 
	C168.168777,41.596233 167.852493,41.586212 167.536224,41.576187 
	C165.859238,35.133907 164.182251,28.691629 162.438370,21.992414 
	C160.759811,21.992414 159.283493,21.992414 156.971680,22.065598 
M399.045044,48.724236 
	C403.397186,45.075855 404.363831,40.183147 404.290344,34.833160 
	C404.218414,29.598576 403.218628,24.751011 398.119446,22.160261 
	C392.884613,19.500597 388.208984,21.157337 384.151611,25.062075 
	C382.476044,21.446115 382.476044,21.446115 377.391052,22.698925 
	C377.391052,36.091003 377.391052,49.456215 377.391052,62.806828 
	C379.539642,62.806828 381.322937,62.806828 383.642395,62.806828 
	C383.642395,57.763390 383.642395,52.905415 383.642395,47.183250 
	C388.680237,51.647873 393.408051,52.149788 399.045044,48.724236 
M259.374054,50.025009 
	C260.837769,50.025009 262.301483,50.025009 264.168335,50.025009 
	C264.073212,47.902073 263.997742,46.217228 263.904449,44.134647 
	C258.652496,44.134647 253.901489,44.134647 249.088684,44.134647 
	C249.088684,40.484997 249.088684,37.268269 249.088684,33.664436 
	C253.485352,33.664436 257.579254,33.664436 261.827148,33.664436 
	C261.827148,31.575474 261.827148,29.892359 261.827148,27.881573 
	C257.391113,27.881573 253.286865,27.881573 249.135376,27.881573 
	C249.135376,24.007675 249.135376,20.483578 249.135376,16.651073 
	C253.918213,16.651073 258.351562,16.651073 262.998596,16.651073 
	C262.998596,14.606434 262.998596,12.878497 262.998596,11.243654 
	C255.952896,11.243654 249.201935,11.243654 242.289154,11.243654 
	C242.289154,24.207817 242.289154,36.902222 242.289154,50.024963 
	C247.835068,50.024963 253.115829,50.024963 259.374054,50.025009 
M131.360489,49.448383 
	C132.444244,49.853222 133.496689,50.425724 134.616974,50.635014 
	C140.753342,51.781418 146.413010,50.810299 150.168304,45.414062 
	C154.235016,39.570320 154.125290,33.137447 150.794083,27.007458 
	C147.747345,21.400917 142.268356,20.543310 136.556183,21.094582 
	C130.604385,21.668983 126.330055,25.472834 124.814529,31.055063 
	C122.758568,38.627937 124.600952,44.302883 131.360489,49.448383 
M434.123230,50.862617 
	C437.077606,50.639206 440.047852,50.539330 442.982330,50.161366 
	C446.717529,49.680271 448.093109,47.590508 446.725159,43.932854 
	C436.042572,48.001610 430.651825,45.864330 431.059540,37.343933 
	C436.949310,37.343933 442.874390,37.343933 448.976562,37.343933 
	C449.712769,31.797445 449.095886,26.881605 444.885895,23.436777 
	C441.165100,20.392199 436.660248,20.140276 432.177826,22.017237 
	C426.590546,24.356855 423.691040,29.664978 423.852966,37.107491 
	C424.011475,44.393250 426.589539,48.078613 434.123230,50.862617 
M313.030304,47.418617 
	C314.575836,50.577415 317.068390,50.395702 320.072266,49.553864 
	C320.072266,44.368713 320.073059,39.394901 320.072083,34.421089 
	C320.069824,22.665741 314.530823,18.648663 303.162109,21.853540 
	C299.542236,22.874006 298.134918,24.603312 299.410431,28.230869 
	C309.928864,24.297800 312.558624,24.922037 313.670715,31.884182 
	C311.058014,32.274483 308.425079,32.560547 305.838715,33.079002 
	C301.843109,33.879963 297.995300,35.045502 296.807709,39.682564 
	C295.833069,43.488270 296.229126,46.979633 299.704956,49.468307 
	C303.325531,52.060627 307.777466,51.481266 313.030304,47.418617 
M275.145416,22.920750 
	C272.853363,22.508368 270.561279,22.095985 266.971802,21.450172 
	C269.986328,26.237930 272.514618,29.709511 274.389313,33.504002 
	C275.118713,34.980438 274.981140,37.512920 274.181366,38.993294 
	C272.197479,42.665569 269.604553,46.008804 267.226715,49.527943 
	C276.595337,52.585369 276.367859,43.525455 280.408203,40.111927 
	C284.252563,43.797260 284.037994,52.632172 293.369873,49.446926 
	C291.008301,45.816818 288.475952,42.379642 286.500305,38.647739 
	C285.778992,37.285206 285.770935,34.895885 286.495575,33.540871 
	C288.530853,29.735113 291.116821,26.223888 293.584839,22.444538 
	C284.023163,19.817436 284.842621,29.194031 280.311310,32.361092 
	C278.728882,29.421431 277.157715,26.502634 275.145416,22.920750 
M214.178879,50.042759 
	C217.716171,48.696514 220.047684,46.481453 220.095566,42.377090 
	C220.144257,38.203568 217.549683,36.130421 214.215912,34.596790 
	C212.717392,33.907425 210.916595,33.643761 209.696503,32.645069 
	C208.454987,31.628828 207.758896,29.946253 206.823990,28.555454 
	C208.263306,27.690411 209.641785,26.253706 211.155975,26.092613 
	C213.500977,25.843126 215.938614,26.464193 218.436768,26.726614 
	C219.770782,22.790487 217.868164,21.015308 214.223938,21.114677 
	C211.140778,21.198751 207.649734,21.233692 205.132584,22.675491 
	C202.927872,23.938328 200.635361,27.096701 200.574280,29.474092 
	C200.513763,31.828394 202.810974,34.662407 204.791199,36.522552 
	C206.493713,38.121826 209.344131,38.427586 211.417404,39.733337 
	C212.481720,40.403645 213.807495,42.344559 213.503632,43.115696 
	C213.019287,44.344902 211.267242,45.874603 210.061539,45.865822 
	C206.771683,45.841846 203.487213,45.079861 200.211182,44.611740 
	C198.766891,49.188820 201.520554,50.751530 205.530243,50.886742 
	C208.134537,50.974556 210.759628,50.446140 214.178879,50.042759 
M417.245728,15.558421 
	C417.245728,13.463132 417.245728,11.367843 417.245728,9.226104 
	C414.911652,9.226104 413.159454,9.226104 411.177612,9.226104 
	C411.177612,22.812376 411.177612,36.175232 411.177612,49.690575 
	C413.274597,49.690575 415.146362,49.690575 417.245728,49.690575 
	C417.245728,38.439686 417.245728,27.494211 417.245728,15.558421 
M93.280273,94.424812 
	C96.666962,95.097198 100.053642,95.769577 103.649681,96.483521 
	C102.107697,92.000519 100.705025,87.594475 99.026909,83.295959 
	C98.651207,82.333595 97.198738,81.038551 96.440323,81.157814 
	C95.344398,81.330154 93.949623,82.459534 93.521591,83.519493 
	C91.804832,87.770905 90.411629,92.152969 88.898804,96.486732 
	C89.145607,96.780960 89.392410,97.075195 89.639214,97.369431 
	C90.750595,96.634132 91.861984,95.898834 93.280273,94.424812 
M182.270187,98.172371 
	C182.854584,99.451393 183.438980,100.730408 184.023376,102.009422 
	C184.886002,100.315575 185.748642,98.621735 186.657394,96.837326 
	C187.437637,96.837326 188.799850,97.139984 189.955978,96.780304 
	C193.359222,95.721558 194.053055,92.769043 193.186005,89.970085 
	C192.691528,88.373833 190.695465,86.664330 189.027237,86.161591 
	C187.092819,85.578636 184.776459,86.263168 182.270142,86.419716 
	C182.270142,89.991524 182.270142,93.624023 182.270187,98.172371 
M172.100250,91.790833 
	C172.811310,90.919113 173.522369,90.047401 174.233444,89.175690 
	C174.752670,90.247147 175.347809,91.289444 175.773270,92.396919 
	C176.403717,94.038017 174.230820,97.495796 178.876633,96.739182 
	C178.876633,94.187073 179.292389,91.617851 178.713196,89.296928 
	C178.390610,88.004288 176.450577,86.273361 175.172043,86.214928 
	C170.889709,86.019211 166.576996,86.487526 161.919418,86.719330 
	C161.919418,87.958954 161.739899,89.455978 161.962357,90.890671 
	C162.279633,92.936760 162.891602,94.937141 163.377701,96.957047 
	C163.955597,95.186478 164.432938,93.373688 165.151627,91.662239 
	C165.541321,90.734238 166.342194,89.978905 166.957596,89.145683 
	C167.566513,89.957474 168.555023,90.706078 168.702911,91.594612 
	C168.984039,93.283592 168.784348,95.052620 168.784348,96.788399 
	C169.455154,96.938889 170.125977,97.089371 170.796783,97.239861 
	C171.230133,95.713905 171.663467,94.187958 172.100250,91.790833 
M150.451630,96.358467 
	C153.147141,96.487816 155.842651,96.617165 158.503799,96.744858 
	C159.410767,86.442169 157.622604,84.382484 150.997620,86.888863 
	C150.499405,88.742157 149.958557,90.185356 149.756363,91.674530 
	C149.573364,93.022385 149.759964,94.420425 150.451630,96.358467 
M134.823318,96.475327 
	C134.656754,91.356049 130.047104,95.687775 128.193909,92.856102 
	C127.212006,90.301605 129.156464,90.062317 131.575500,89.930984 
	C132.467728,89.882553 133.318420,89.069595 134.188065,88.605347 
	C133.387909,88.071175 132.613373,87.492363 131.780869,87.014549 
	C130.819260,86.462631 129.806564,85.999725 127.957253,85.063316 
	C131.125854,84.081703 133.023117,83.493942 134.920395,82.906181 
	C134.780869,82.392899 134.641327,81.879608 134.501801,81.366325 
	C131.648041,81.366325 128.794266,81.366325 126.192848,81.366325 
	C126.192848,86.793678 126.192848,91.852180 126.192848,96.911438 
	C129.061417,96.911438 131.546112,96.911438 134.823318,96.475327 
M210.704147,91.993889 
	C211.083191,90.869049 212.111984,89.253258 211.708710,88.719559 
	C210.815384,87.537300 209.275803,86.333862 207.868851,86.151993 
	C204.632904,85.733704 201.974197,87.551353 202.168823,90.756233 
	C202.296173,92.853249 204.130829,95.411545 205.956985,96.628288 
	C207.050217,97.356712 209.601349,95.897079 211.497177,95.420921 
	C211.306427,94.961357 211.115677,94.501793 210.924927,94.042221 
	C209.204086,93.857872 207.483231,93.673523 205.762390,93.489166 
	C205.785706,93.066124 205.809021,92.643089 205.832336,92.220047 
	C207.192215,92.145905 208.552078,92.071762 210.704147,91.993889 
M142.490204,89.174690 
	C140.928146,88.018600 139.366104,86.862511 137.804062,85.706421 
	C137.528351,86.061058 137.252655,86.415703 136.976944,86.770348 
	C137.902847,88.323174 138.828735,89.875999 139.782684,91.475876 
	C138.747818,93.161133 137.729813,94.818939 136.711807,96.476753 
	C136.925751,96.786125 137.139679,97.095497 137.353622,97.404869 
	C138.946075,96.487312 140.538544,95.569756 142.002289,94.726364 
	C143.482864,95.528130 145.178696,96.446449 146.874512,97.364777 
	C147.366516,97.051697 147.858521,96.738617 148.350510,96.425545 
	C143.389618,93.146988 145.073471,89.690872 147.625961,86.211548 
	C147.209229,85.968285 146.792511,85.725014 146.375778,85.481750 
	C145.250076,86.522629 144.124359,87.563507 142.490204,89.174690 
M106.409737,86.212448 
	C106.246315,88.496887 105.862267,90.795090 106.003548,93.060532 
	C106.086159,94.385292 107.007408,95.657753 107.551376,96.953743 
	C108.066299,95.624847 108.520668,94.268219 109.113014,92.974777 
	C109.715836,91.658470 110.454536,90.404388 111.133743,89.123062 
	C111.777130,90.393723 112.491447,91.634415 113.044395,92.943283 
	C113.624847,94.317238 114.050644,95.756531 114.544022,97.167267 
	C115.188385,96.974136 115.832756,96.781006 116.477119,96.587868 
	C116.154335,93.521027 116.350548,90.241364 115.227539,87.502655 
	C114.833977,86.542839 111.193268,86.943794 109.044388,86.655800 
	C108.437164,86.574432 107.861961,86.254135 106.409737,86.212448 
M199.746826,95.968132 
	C199.770340,91.477997 199.876587,86.985428 199.745209,82.499832 
	C199.719940,81.637207 198.761932,80.801903 198.234222,79.953987 
	C197.566620,80.662941 196.352463,81.348785 196.321350,82.084656 
	C196.138824,86.401482 196.108353,90.737549 196.370453,95.046204 
	C196.408661,95.674294 198.288361,96.190353 199.746826,95.968132 
M720.450684,52.979347 
	C719.628174,53.848801 718.197571,54.653275 718.096436,55.599812 
	C717.785400,58.510475 717.983154,61.475502 717.983154,64.419403 
	C718.461853,64.701996 718.940552,64.984589 719.419250,65.267181 
	C720.267456,64.310997 721.791687,63.386360 721.838013,62.392761 
	C721.981384,59.320354 721.561768,56.221680 720.450684,52.979347 
z"/>
<path fill="#007C00" opacity="1.000000" stroke="none" 
	d="
M451.750000,1.000000 
	C452.000000,21.785946 452.000000,42.571892 452.000000,63.357838 
	C451.667145,63.359135 451.334290,63.360432 451.001434,63.361725 
	C451.001434,42.886921 451.001434,22.412117 451.000732,1.468657 
	C451.000000,1.000000 451.500000,1.000000 451.750000,1.000000 
z"/>
<path fill="#007BFF" opacity="1.000000" stroke="none" 
	d="
M68.167137,140.000778 
	C68.167137,128.866516 68.167137,117.732262 68.167137,106.299774 
	C600.000427,106.299774 1131.689209,106.299774 1663.976440,106.299774 
	C1663.976440,117.209671 1663.976440,128.141418 1663.662964,139.505096 
	C1663.349487,139.937057 1662.889282,139.776291 1662.574463,139.522736 
	C1660.771240,139.179459 1659.282593,139.011124 1657.794067,139.011078 
	C1129.992188,138.999771 602.190308,138.999252 74.388420,139.032013 
	C72.625755,139.032120 70.863129,139.518005 68.872986,139.857300 
	C68.645485,139.937607 68.167137,140.000778 68.167137,140.000778 
M69.186707,128.089355 
	C69.429665,129.043015 69.672623,129.996658 69.915588,130.950317 
	C70.222816,130.914474 70.530052,130.878647 70.837280,130.842804 
	C70.990692,128.610870 71.144096,126.378937 71.294548,124.190025 
	C73.137894,123.744537 74.805733,123.341461 76.473572,122.938393 
	C76.412292,122.663895 76.351006,122.389397 76.289726,122.114899 
	C74.689003,121.993233 73.088280,121.871567 71.468681,121.748466 
	C71.468681,119.947311 71.468681,118.423546 71.468681,116.991196 
	C73.491844,116.674850 75.143051,116.416672 76.794258,116.158485 
	C76.754494,115.860229 76.714722,115.561974 76.674957,115.263718 
	C74.352272,115.263718 72.029594,115.263718 69.185387,115.263718 
	C69.185387,119.292061 69.185387,123.230530 69.186707,128.089355 
M133.783707,122.585922 
	C131.767166,119.659691 128.702240,118.652260 126.295708,121.002792 
	C124.732056,122.530060 124.104080,125.924522 124.527222,128.210220 
	C124.753944,129.434906 128.169983,130.967316 130.007660,130.803177 
	C133.520676,130.489456 134.658569,127.644997 134.214828,124.256088 
	C134.172226,123.930756 134.102417,123.608978 133.783707,122.585922 
M107.205284,130.924759 
	C107.369385,130.532837 107.768852,129.882355 107.663498,129.786423 
	C104.078926,126.523331 104.099556,123.350464 105.978264,122.289108 
	C104.788101,121.277664 103.597946,120.266228 102.407784,119.254784 
	C102.769516,119.869415 102.918922,128.256866 104.655838,130.347672 
	C105.006920,130.770294 105.822029,130.807434 107.205284,130.924759 
M98.293327,121.832054 
	C96.709663,121.499672 95.125999,121.167290 93.712021,120.870522 
	C90.578247,126.299438 97.732780,125.205612 97.906288,128.936478 
	C96.266052,129.142960 94.703308,129.339706 93.140572,129.536438 
	C93.215317,130.018875 93.290062,130.501312 93.364815,130.983749 
	C95.269753,130.553604 98.056427,130.768646 98.925720,129.580673 
	C102.527527,124.658455 94.612045,125.979256 94.793869,122.222374 
	C95.744904,122.027542 96.786194,121.814224 98.293327,121.832054 
z"/>
<path fill="#007BFF" opacity="1.000000" stroke="none" 
	d="
M1663.833008,239.999359 
	C1663.833008,251.133652 1663.833008,262.267944 1663.833008,273.700317 
	C1131.999512,273.700317 600.310608,273.700317 68.023674,273.700317 
	C68.023674,262.790192 68.023674,251.858566 68.337059,240.495010 
	C68.650444,240.063080 69.110634,240.223785 69.425346,240.477325 
	C71.228622,240.820572 72.717178,240.988892 74.205742,240.988922 
	C602.007751,241.000229 1129.809692,241.000763 1657.611694,240.968002 
	C1659.374390,240.967896 1661.136963,240.482071 1663.127197,240.142792 
	C1663.354614,240.062469 1663.833008,239.999359 1663.833008,239.999359 
M85.926521,262.288513 
	C86.086395,263.132721 86.246262,263.976929 86.406136,264.821136 
	C87.680496,262.806244 87.489319,260.730255 87.959976,258.817047 
	C88.291885,257.467804 89.522057,256.339539 90.351173,255.112579 
	C91.200813,256.279785 92.295982,257.347717 92.820885,258.646179 
	C93.226532,259.649628 92.498062,261.203827 93.023346,262.045258 
	C93.836060,263.346954 95.288132,264.249481 96.469078,265.321289 
	C96.743446,264.956116 97.017815,264.590912 97.292183,264.225739 
	C93.929070,261.431946 93.902527,257.873962 95.903389,255.819672 
	C94.934883,254.632492 93.986343,253.469788 93.349113,252.688690 
	C92.284508,252.913834 90.458740,253.299973 88.632973,253.686111 
	C89.036110,251.912857 89.439247,250.139587 90.159874,246.969849 
	C88.423676,248.669632 86.992020,249.655075 86.123795,251.003342 
	C83.961578,254.360977 86.358978,257.944977 85.926521,262.288513 
M76.469200,256.423309 
	C74.738922,256.126495 73.008644,255.829697 71.070160,255.497162 
	C71.173508,253.813095 71.261688,252.376160 71.345932,251.003296 
	C73.398155,250.690170 75.124489,250.426773 76.850815,250.163361 
	C76.785332,249.874939 76.719849,249.586502 76.654366,249.298065 
	C74.260376,249.298065 71.866386,249.298065 69.822250,249.298065 
	C69.822250,254.745819 69.822250,259.808838 69.822250,264.871857 
	C70.155815,264.859528 70.489388,264.847229 70.822952,264.834900 
	C70.985901,262.592041 71.148842,260.349152 71.315147,258.060120 
	C73.072311,257.744934 74.670921,257.458191 76.469200,256.423309 
M127.161179,255.772827 
	C124.953827,260.786377 126.217033,264.766144 130.379456,264.856964 
	C132.180511,264.896271 135.088272,263.649963 135.584778,262.290558 
	C136.304169,260.320953 136.108719,256.705536 134.803375,255.653519 
	C133.307343,254.447876 130.171021,255.277542 127.161179,255.772827 
M101.865120,260.555328 
	C101.545166,255.778778 104.468773,255.072601 108.286407,255.442276 
	C106.175140,255.138184 104.063866,254.834091 102.216263,254.567978 
	C101.854477,252.140823 101.556519,250.141891 101.258560,248.142975 
	C100.946381,248.209763 100.634201,248.276550 100.322021,248.343338 
	C100.322021,253.800995 100.322021,259.258667 100.322021,264.716309 
	C100.647408,264.756744 100.972786,264.797150 101.298172,264.837585 
	C101.486076,263.696503 101.673988,262.555450 101.865120,260.555328 
z"/>
<path fill="#007BFF" opacity="1.000000" stroke="none" 
	d="
M68.164940,181.924255 
	C68.118050,179.244431 68.071167,176.564590 68.337341,173.473907 
	C68.650406,173.063065 69.110619,173.223770 69.425331,173.477310 
	C71.228592,173.820572 72.717133,173.988892 74.205681,173.988922 
	C602.007629,174.000229 1129.809570,174.000763 1657.611572,173.968002 
	C1659.374268,173.967896 1661.136841,173.482071 1663.127075,173.142792 
	C1663.354614,173.062485 1663.833130,172.999374 1663.833008,172.999374 
	C1663.880859,184.023941 1663.928589,195.048492 1663.662842,206.505005 
	C1663.349487,206.936966 1662.889282,206.776215 1662.574463,206.522675 
	C1660.771118,206.179413 1659.282593,206.011108 1657.793945,206.011078 
	C1129.992065,205.999771 602.190308,205.999268 74.388466,206.032028 
	C72.625786,206.032150 70.863144,206.517944 68.872986,206.857239 
	C68.645500,206.937546 68.167145,207.000687 68.167145,207.000687 
	C68.120102,199.566315 68.073051,192.131927 68.536072,184.216064 
	C72.109138,183.354385 72.075104,185.345230 72.029594,187.497849 
	C71.957047,190.928482 72.010193,194.361771 72.010193,197.793945 
	C76.271133,193.030228 70.025650,185.653732 77.610664,181.924255 
	C74.462090,181.924255 71.313515,181.924255 68.164940,181.924255 
M115.096573,195.572556 
	C115.578522,195.784088 116.060478,195.995605 116.542427,196.207138 
	C116.542427,191.652313 116.542427,187.097488 116.542427,182.375412 
	C114.660706,184.878723 113.137871,186.904602 111.677834,188.846939 
	C111.914246,188.972122 112.989075,189.541275 114.063614,190.880096 
	C114.364365,192.216461 114.665115,193.552811 115.096573,195.572556 
M136.279907,187.459183 
	C133.020050,189.421295 131.819168,192.513000 134.105408,195.367035 
	C135.322662,196.886612 139.127029,197.949341 140.684723,197.140472 
	C142.346283,196.277679 143.671219,192.873550 143.463531,190.742554 
	C143.142532,187.448654 140.215652,186.473984 136.279907,187.459183 
M90.084503,196.144272 
	C90.109444,187.090454 89.528168,186.377579 82.763176,187.416489 
	C82.659233,186.138931 82.556358,184.874420 82.453484,183.609909 
	C82.422096,183.612671 82.390717,183.615433 82.359337,183.618210 
	C82.446648,185.418076 82.533966,187.217957 82.644287,189.492157 
	C88.343498,186.844849 88.113266,190.512726 88.274765,194.120514 
	C88.319084,195.110703 89.408089,196.054123 90.084503,196.144272 
M106.736115,194.701309 
	C107.216072,195.305450 107.696037,195.909607 108.219719,196.568771 
	C108.434006,193.495636 108.628670,190.704025 108.823326,187.912399 
	C108.377182,187.813416 107.931030,187.714447 107.484886,187.615463 
	C107.095093,189.822876 106.705299,192.030289 106.736115,194.701309 
M111.929344,197.875931 
	C111.707909,197.344849 111.486473,196.813751 111.265045,196.282669 
	C110.997696,196.410507 110.730339,196.538330 110.462982,196.666153 
	C110.760811,197.088425 111.058640,197.510712 111.929344,197.875931 
z"/>
<path fill="#28A745" opacity="1.000000" stroke="none" 
	d="
M68.094971,207.464401 
	C68.167145,207.000687 68.645500,206.937546 68.890610,206.964218 
	C69.135727,206.990891 69.003181,207.162552 69.259422,207.463867 
	C70.837410,207.843445 72.159157,207.990295 73.480904,207.990326 
	C601.757385,208.000168 1130.033936,208.000717 1658.310425,207.965500 
	C1659.872559,207.965393 1661.434814,207.441711 1662.927734,207.077759 
	C1662.858643,206.992935 1662.889282,206.776215 1662.889282,206.776215 
	C1662.889282,206.776215 1663.349487,206.936966 1663.591309,206.968781 
	C1663.880981,217.691040 1663.929077,228.381454 1663.905029,239.535614 
	C1663.833008,239.999359 1663.354614,240.062469 1663.109375,240.035736 
	C1662.864136,240.009018 1662.996948,239.837418 1662.740723,239.536102 
	C1661.162720,239.156525 1659.841064,239.009705 1658.519287,239.009689 
	C1130.242798,238.999847 601.966248,238.999252 73.689758,239.034470 
	C72.127548,239.034576 70.565369,239.558304 69.072250,239.922287 
	C69.141319,240.007126 69.110634,240.223785 69.110634,240.223785 
	C69.110634,240.223785 68.650444,240.063080 68.408798,240.031235 
	C68.119041,229.308960 68.070923,218.618546 68.094971,207.464401 
M87.493851,229.634521 
	C84.674789,230.704651 81.957176,230.774185 81.338310,227.171967 
	C80.537933,222.513199 84.570320,222.931381 87.438278,222.029434 
	C84.660873,220.427887 81.576797,220.599701 80.690590,223.473083 
	C79.980553,225.775253 80.609734,229.634079 82.211235,231.211945 
	C84.150719,233.122803 87.426483,232.416901 89.307510,228.553162 
	C89.744896,227.607788 90.182281,226.662415 90.619667,225.717041 
	C90.179008,225.541748 89.738342,225.366455 89.297668,225.191177 
	C88.875282,226.484940 88.452896,227.778702 87.493851,229.634521 
M160.798874,224.844604 
	C161.585861,227.232117 162.372849,229.619629 163.159836,232.007141 
	C163.572495,231.980698 163.985168,231.954254 164.397842,231.927795 
	C165.352356,229.536545 166.306870,227.145294 167.366898,224.489685 
	C168.180191,226.429672 168.791397,227.887604 169.402603,229.345535 
	C169.737640,229.230453 170.072678,229.115372 170.407715,229.000290 
	C169.656265,226.325623 168.904816,223.650970 168.153381,220.976303 
	C167.754654,220.971100 167.355942,220.965897 166.957214,220.960678 
	C166.029190,223.245117 165.101166,225.529556 163.850372,228.608521 
	C162.713425,225.518250 161.907013,223.326355 161.100586,221.134476 
	C160.805191,221.226318 160.509796,221.318161 160.214401,221.410004 
	C160.335495,222.313232 160.456589,223.216461 160.798874,224.844604 
M101.667023,226.937485 
	C101.572235,225.299622 101.477448,223.661774 101.382660,222.023911 
	C100.266380,223.573212 100.633751,225.155548 100.167534,226.433853 
	C99.657089,227.833420 98.376724,228.952179 97.431908,230.193314 
	C96.590134,229.014450 95.395096,227.943161 94.995224,226.629761 
	C94.485527,224.955673 94.618759,223.085815 94.474854,221.300354 
	C91.591202,230.076843 93.259605,232.269470 101.186249,231.346909 
	C101.269402,230.106537 101.352547,228.866180 101.667023,226.937485 
M151.090881,231.002975 
	C151.735809,230.953171 152.380722,230.903351 151.649399,230.959839 
	C151.343262,228.545746 151.053482,226.260559 150.763687,223.975403 
	C153.318161,224.407013 155.872635,224.838638 158.005081,225.198944 
	C157.287369,222.222336 156.852448,221.604050 152.219284,222.052505 
	C150.434006,222.225296 147.574585,224.083298 147.442139,225.398773 
	C147.266281,227.145569 149.280273,229.112823 151.090881,231.002975 
M72.597572,217.856812 
	C73.939117,217.662399 75.280655,217.467987 76.622200,217.273575 
	C76.584869,216.961243 76.547546,216.648926 76.510223,216.336594 
	C74.414345,216.336594 72.318474,216.336594 70.094284,216.336594 
	C70.094284,221.600403 70.094284,226.484940 70.094284,231.369476 
	C70.302696,231.387985 70.511108,231.406509 70.719513,231.425018 
	C70.976173,229.374207 71.232826,227.323410 71.489571,225.271927 
	C73.336937,224.863708 74.971695,224.502487 76.606453,224.141251 
	C76.593254,223.877151 76.580048,223.613052 76.566849,223.348953 
	C74.889679,223.098877 73.212517,222.848801 71.011177,222.520569 
	C71.315849,220.891785 71.571564,219.524734 72.597572,217.856812 
M157.741364,230.360046 
	C157.288025,229.871353 156.834671,229.382660 156.381332,228.893967 
	C155.982437,229.518204 155.583542,230.142441 155.184647,230.766678 
	C155.923462,230.816879 156.662262,230.867081 157.741364,230.360046 
z"/>
<path fill="#28A745" opacity="1.000000" stroke="none" 
	d="
M1663.905273,172.535645 
	C1663.833130,172.999374 1663.354614,173.062485 1663.109375,173.035736 
	C1662.864136,173.009003 1662.996948,172.837433 1662.740723,172.536072 
	C1661.162720,172.156479 1659.840942,172.009689 1658.519165,172.009659 
	C1130.242676,171.999832 601.966187,171.999268 73.689728,172.034485 
	C72.127525,172.034592 70.565353,172.558304 69.072235,172.922302 
	C69.141304,173.007126 69.110619,173.223770 69.110619,173.223770 
	C69.110619,173.223770 68.650406,173.063065 68.408752,173.031219 
	C68.118988,162.308990 68.070869,151.618591 68.094940,140.464478 
	C68.167137,140.000778 68.645485,139.937607 68.890648,139.964279 
	C69.135811,139.990952 69.003174,140.162537 69.259415,140.463867 
	C70.837410,140.843475 72.159157,140.990311 73.480911,140.990341 
	C601.757446,141.000168 1130.033936,141.000717 1658.310425,140.965515 
	C1659.872559,140.965408 1661.434814,140.441711 1662.927856,140.077759 
	C1662.858765,139.992950 1662.889282,139.776291 1662.889282,139.776291 
	C1662.889282,139.776291 1663.349487,139.937057 1663.591309,139.968903 
	C1663.881104,150.691116 1663.929199,161.381516 1663.905273,172.535645 
M163.493805,162.634323 
	C160.674515,163.704544 157.957611,163.774048 157.338196,160.171280 
	C156.536942,155.510773 160.572861,155.933517 163.420410,154.955460 
	C160.696487,153.634766 157.582962,153.473465 156.683304,156.470963 
	C155.988068,158.787460 156.610580,162.636719 158.212891,164.213470 
	C160.152496,166.122131 163.430313,165.418213 165.309402,161.551620 
	C165.745819,160.606171 166.182236,159.660721 166.618652,158.715271 
	C166.177948,158.540375 165.737244,158.365463 165.296539,158.190552 
	C164.874496,159.484436 164.452438,160.778320 163.493805,162.634323 
M110.493820,162.634354 
	C107.674759,163.704483 104.957222,163.774124 104.338448,160.171707 
	C103.538193,155.512787 107.571106,155.931808 110.438599,155.029556 
	C107.660950,153.427338 104.577324,153.599472 103.691383,156.473709 
	C102.981674,158.776184 103.610641,162.635101 105.212242,164.212524 
	C107.151535,166.122559 110.428139,165.417816 112.308044,161.552628 
	C112.745033,160.607269 113.182022,159.661896 113.619011,158.716537 
	C113.178352,158.541428 112.737694,158.366318 112.297050,158.191208 
	C111.874832,159.484879 111.452614,160.778564 110.493820,162.634354 
M134.190247,153.981796 
	C129.951431,153.886902 128.255127,156.561768 128.373703,160.180496 
	C128.499359,164.015717 131.109268,165.433136 135.675003,164.951996 
	C136.783539,163.941666 138.730865,163.019363 138.847824,161.904968 
	C139.243881,158.131012 139.069290,154.286133 138.927002,150.475311 
	C138.895630,149.634995 138.100616,148.823212 137.192886,147.134323 
	C136.206390,150.175430 135.582870,152.097565 134.190247,153.981796 
M89.796432,156.941742 
	C88.218140,153.817535 85.299202,152.607666 83.089027,155.065323 
	C81.561424,156.763977 80.967453,160.629028 81.812950,162.804367 
	C82.907509,165.620499 85.973740,165.976700 88.197449,163.978668 
	C86.272240,163.102661 84.326332,162.217224 82.076523,161.193527 
	C85.434135,159.713684 87.695656,158.716934 89.796432,156.941742 
M74.165176,164.935120 
	C79.080673,162.227310 79.224991,159.842331 74.916359,156.673737 
	C73.375214,155.540359 72.270615,153.813385 70.966766,152.357346 
	C72.727013,151.804840 74.492508,151.267746 76.237831,150.671524 
	C76.382202,150.622208 76.389778,150.172470 76.965996,148.036636 
	C73.724197,149.522598 70.640320,149.954987 69.504158,151.674393 
	C67.530197,154.661682 70.751411,156.108871 72.782730,157.771713 
	C74.040085,158.800980 74.925919,160.284103 75.978523,161.563492 
	C74.398582,162.060471 72.825935,162.582825 71.234634,163.040283 
	C70.697479,163.194687 70.112999,163.184494 69.550148,163.249542 
	C69.510048,163.566666 69.469948,163.883804 69.429855,164.200928 
	C70.747780,164.474747 72.065697,164.748566 74.165176,164.935120 
M168.647324,157.072388 
	C169.524338,159.747696 170.401337,162.423019 171.278351,165.098328 
	C171.702850,165.058762 172.127365,165.019196 172.551865,164.979630 
	C173.493225,162.578125 174.434570,160.176605 175.577057,157.261993 
	C176.351562,159.387070 176.890488,160.865738 177.429398,162.344421 
	C177.750580,162.247879 178.071762,162.151352 178.392944,162.054825 
	C177.744553,159.384232 177.096176,156.713638 176.447800,154.043045 
	C176.019135,154.057571 175.590469,154.072098 175.161804,154.086609 
	C174.280472,156.259460 173.399139,158.432312 172.182602,161.431580 
	C170.978210,158.473450 170.092194,156.297302 169.206177,154.121155 
	C168.869263,154.252686 168.532364,154.384216 168.195450,154.515747 
	C168.256500,155.132065 168.317535,155.748367 168.647324,157.072388 
M92.508392,161.818069 
	C94.146774,164.884247 96.514801,165.481049 99.224304,164.745041 
	C97.250404,162.915436 93.990074,160.898285 94.275726,159.955673 
	C94.934853,157.780579 97.314651,156.126907 98.762917,154.520721 
	C94.281891,153.557968 92.339760,155.256805 92.508392,161.818069 
z"/>
<path fill="#078007" opacity="1.000000" stroke="none" 
	d="
M351.968872,35.338158 
	C351.968903,40.276085 351.968903,44.752266 351.968903,49.619301 
	C349.741394,49.619301 347.722870,49.619301 345.236389,49.619301 
	C345.236389,44.294052 345.304443,39.008507 345.212830,33.725723 
	C345.150024,30.103231 344.728088,26.120409 340.013031,26.164177 
	C335.353027,26.207434 334.260193,30.098167 334.121918,33.952389 
	C333.937958,39.080654 334.076538,44.220490 334.076538,49.682205 
	C331.919159,49.682205 330.025726,49.682205 327.920715,49.682205 
	C327.920715,40.597198 327.920715,31.490145 327.920715,21.515919 
	C330.408264,22.152245 332.602814,22.713621 335.846954,23.543489 
	C341.762604,19.365667 345.682709,19.610344 351.022247,25.737270 
	C352.206970,24.705864 353.308746,23.538595 354.603882,22.654587 
	C360.701324,18.492653 368.088654,21.728342 369.196899,29.009140 
	C369.371582,30.156715 369.499664,31.323677 369.506134,32.482475 
	C369.537598,38.118752 369.520355,43.755302 369.520355,49.699265 
	C367.348053,49.699265 365.466797,49.699265 363.031189,49.699265 
	C363.031189,44.711903 363.108795,39.768150 363.006012,34.828144 
	C362.927277,31.044067 363.371918,26.682919 357.967010,26.097565 
	C354.502014,25.722300 352.348969,29.099718 351.968872,35.338158 
z"/>
<path fill="#098109" opacity="1.000000" stroke="none" 
	d="
M93.232536,21.043568 
	C93.232544,17.582645 93.232544,14.613699 93.232544,11.161126 
	C98.942696,11.161126 104.400032,10.732828 109.753845,11.293353 
	C114.232582,11.762260 118.026360,14.201822 118.954140,19.142653 
	C119.913292,24.250544 118.042969,28.261169 113.450890,30.889858 
	C112.748444,31.291969 112.083412,31.759439 111.752487,31.971491 
	C115.674240,37.733318 119.526611,43.393219 123.519028,49.258869 
	C116.396690,50.681267 116.397682,50.680679 113.225128,45.321892 
	C111.872269,43.036758 110.507660,40.758560 109.160149,38.470280 
	C107.206047,35.151917 104.530045,33.305241 100.059113,34.298790 
	C100.059113,39.248566 100.059113,44.328964 100.059113,49.707756 
	C97.708496,49.707756 95.791908,49.707756 93.232529,49.707756 
	C93.232529,40.377884 93.232529,30.956713 93.232536,21.043568 
M105.093666,16.081327 
	C103.494987,16.081327 101.896317,16.081327 100.286606,16.081327 
	C100.286606,20.677593 100.286606,24.748434 100.286606,28.800661 
	C108.197426,29.089647 111.368141,27.651833 111.984749,23.557476 
	C112.683250,18.919296 110.201912,16.794502 105.093666,16.081327 
z"/>
<path fill="#098009" opacity="1.000000" stroke="none" 
	d="
M157.389435,22.029007 
	C159.283493,21.992414 160.759811,21.992414 162.438370,21.992414 
	C164.182251,28.691629 165.859238,35.133907 167.536224,41.576187 
	C167.852493,41.586212 168.168777,41.596233 168.485046,41.606258 
	C169.896896,36.789322 171.656174,32.040314 172.615204,27.134857 
	C173.444305,22.894117 175.065079,20.802383 180.181885,22.464571 
	C181.784302,28.640438 183.503769,35.267414 185.223236,41.894390 
	C185.493683,41.905346 185.764130,41.916302 186.034576,41.927258 
	C187.710892,35.386677 189.387222,28.846096 191.099167,22.166555 
	C193.008148,22.166555 194.796951,22.166555 197.125076,22.166555 
	C194.352600,31.561974 191.661667,40.681114 188.951645,49.864861 
	C186.706146,49.864861 184.734207,49.864861 182.280518,49.864861 
	C180.534897,43.682308 178.759995,37.395985 176.628448,29.846495 
	C174.412125,37.294712 172.584763,43.435802 170.696213,49.782467 
	C168.713058,49.782467 166.752808,49.782467 163.565765,49.782467 
	C161.430191,40.806007 159.200928,31.435802 157.389435,22.029007 
z"/>
<path fill="#077F07" opacity="1.000000" stroke="none" 
	d="
M398.721008,48.930290 
	C393.408051,52.149788 388.680237,51.647873 383.642395,47.183250 
	C383.642395,52.905415 383.642395,57.763390 383.642395,62.806828 
	C381.322937,62.806828 379.539642,62.806828 377.391052,62.806828 
	C377.391052,49.456215 377.391052,36.091003 377.391052,22.698925 
	C382.476044,21.446115 382.476044,21.446115 384.151611,25.062075 
	C388.208984,21.157337 392.884613,19.500597 398.119446,22.160261 
	C403.218628,24.751011 404.218414,29.598576 404.290344,34.833160 
	C404.363831,40.183147 403.397186,45.075855 398.721008,48.930290 
M389.793823,26.063587 
	C383.712219,28.817717 381.086029,37.281540 384.725952,42.789478 
	C386.823669,45.963703 389.872131,47.173477 393.330017,45.262436 
	C398.023407,42.668598 398.193146,37.950390 397.747314,33.430222 
	C397.343292,29.333811 395.411163,26.116886 389.793823,26.063587 
z"/>
<path fill="#0E840E" opacity="1.000000" stroke="none" 
	d="
M258.885315,50.024986 
	C253.115829,50.024963 247.835068,50.024963 242.289154,50.024963 
	C242.289154,36.902222 242.289154,24.207817 242.289154,11.243654 
	C249.201935,11.243654 255.952896,11.243654 262.998596,11.243654 
	C262.998596,12.878497 262.998596,14.606434 262.998596,16.651073 
	C258.351562,16.651073 253.918213,16.651073 249.135376,16.651073 
	C249.135376,20.483578 249.135376,24.007675 249.135376,27.881573 
	C253.286865,27.881573 257.391113,27.881573 261.827148,27.881573 
	C261.827148,29.892359 261.827148,31.575474 261.827148,33.664436 
	C257.579254,33.664436 253.485352,33.664436 249.088684,33.664436 
	C249.088684,37.268269 249.088684,40.484997 249.088684,44.134647 
	C253.901489,44.134647 258.652496,44.134647 263.904449,44.134647 
	C263.997742,46.217228 264.073212,47.902073 264.168335,50.025009 
	C262.301483,50.025009 260.837769,50.025009 258.885315,50.024986 
z"/>
<path fill="#088008" opacity="1.000000" stroke="none" 
	d="
M131.016418,49.273441 
	C124.600952,44.302883 122.758568,38.627937 124.814529,31.055063 
	C126.330055,25.472834 130.604385,21.668983 136.556183,21.094582 
	C142.268356,20.543310 147.747345,21.400917 150.794083,27.007458 
	C154.125290,33.137447 154.235016,39.570320 150.168304,45.414062 
	C146.413010,50.810299 140.753342,51.781418 134.616974,50.635014 
	C133.496689,50.425724 132.444244,49.853222 131.016418,49.273441 
M136.214722,45.671463 
	C140.517014,46.752304 143.753723,45.358906 145.572464,41.307117 
	C147.552734,36.895481 146.210281,29.832138 143.141006,27.481941 
	C139.379700,24.601849 134.099869,25.974987 131.853928,30.417406 
	C129.280502,35.507618 130.816528,41.724880 136.214722,45.671463 
z"/>
<path fill="#067E06" opacity="1.000000" stroke="none" 
	d="
M433.721649,50.751717 
	C426.589539,48.078613 424.011475,44.393250 423.852966,37.107491 
	C423.691040,29.664978 426.590546,24.356855 432.177826,22.017237 
	C436.660248,20.140276 441.165100,20.392199 444.885895,23.436777 
	C449.095886,26.881605 449.712769,31.797445 448.976562,37.343933 
	C442.874390,37.343933 436.949310,37.343933 431.059540,37.343933 
	C430.651825,45.864330 436.042572,48.001610 446.725159,43.932854 
	C448.093109,47.590508 446.717529,49.680271 442.982330,50.161366 
	C440.047852,50.539330 437.077606,50.639206 433.721649,50.751717 
M440.528015,26.701149 
	C434.327850,24.842699 431.528900,26.641815 431.045197,32.824883 
	C434.969757,32.824883 438.890594,32.824883 443.613586,32.824883 
	C442.668030,30.654503 441.917725,28.932375 440.528015,26.701149 
z"/>
<path fill="#088008" opacity="1.000000" stroke="none" 
	d="
M312.730743,47.662369 
	C307.777466,51.481266 303.325531,52.060627 299.704956,49.468307 
	C296.229126,46.979633 295.833069,43.488270 296.807709,39.682564 
	C297.995300,35.045502 301.843109,33.879963 305.838715,33.079002 
	C308.425079,32.560547 311.058014,32.274483 313.670715,31.884182 
	C312.558624,24.922037 309.928864,24.297800 299.410431,28.230869 
	C298.134918,24.603312 299.542236,22.874006 303.162109,21.853540 
	C314.530823,18.648663 320.069824,22.665741 320.072083,34.421089 
	C320.073059,39.394901 320.072266,44.368713 320.072266,49.553864 
	C317.068390,50.395702 314.575836,50.577415 312.730743,47.662369 
M305.137756,45.858166 
	C312.014618,46.183342 314.620117,43.118870 313.243317,36.334408 
	C311.290283,36.576744 309.320038,36.725185 307.387573,37.079716 
	C302.373077,37.999672 301.304047,41.130348 305.137756,45.858166 
z"/>
<path fill="#077F07" opacity="1.000000" stroke="none" 
	d="
M275.365967,23.252295 
	C277.157715,26.502634 278.728882,29.421431 280.311310,32.361092 
	C284.842621,29.194031 284.023163,19.817436 293.584839,22.444538 
	C291.116821,26.223888 288.530853,29.735113 286.495575,33.540871 
	C285.770935,34.895885 285.778992,37.285206 286.500305,38.647739 
	C288.475952,42.379642 291.008301,45.816818 293.369873,49.446926 
	C284.037994,52.632172 284.252563,43.797260 280.408203,40.111927 
	C276.367859,43.525455 276.595337,52.585369 267.226715,49.527943 
	C269.604553,46.008804 272.197479,42.665569 274.181366,38.993294 
	C274.981140,37.512920 275.118713,34.980438 274.389313,33.504002 
	C272.514618,29.709511 269.986328,26.237930 266.971802,21.450172 
	C270.561279,22.095985 272.853363,22.508368 275.365967,23.252295 
z"/>
<path fill="#098109" opacity="1.000000" stroke="none" 
	d="
M213.777130,50.118286 
	C210.759628,50.446140 208.134537,50.974556 205.530243,50.886742 
	C201.520554,50.751530 198.766891,49.188820 200.211182,44.611740 
	C203.487213,45.079861 206.771683,45.841846 210.061539,45.865822 
	C211.267242,45.874603 213.019287,44.344902 213.503632,43.115696 
	C213.807495,42.344559 212.481720,40.403645 211.417404,39.733337 
	C209.344131,38.427586 206.493713,38.121826 204.791199,36.522552 
	C202.810974,34.662407 200.513763,31.828394 200.574280,29.474092 
	C200.635361,27.096701 202.927872,23.938328 205.132584,22.675491 
	C207.649734,21.233692 211.140778,21.198751 214.223938,21.114677 
	C217.868164,21.015308 219.770782,22.790487 218.436768,26.726614 
	C215.938614,26.464193 213.500977,25.843126 211.155975,26.092613 
	C209.641785,26.253706 208.263306,27.690411 206.823990,28.555454 
	C207.758896,29.946253 208.454987,31.628828 209.696503,32.645069 
	C210.916595,33.643761 212.717392,33.907425 214.215912,34.596790 
	C217.549683,36.130421 220.144257,38.203568 220.095566,42.377090 
	C220.047684,46.481453 217.716171,48.696514 213.777130,50.118286 
z"/>
<path fill="#007C00" opacity="1.000000" stroke="none" 
	d="
M417.245728,16.053579 
	C417.245728,27.494211 417.245728,38.439686 417.245728,49.690575 
	C415.146362,49.690575 413.274597,49.690575 411.177612,49.690575 
	C411.177612,36.175232 411.177612,22.812376 411.177612,9.226104 
	C413.159454,9.226104 414.911652,9.226104 417.245728,9.226104 
	C417.245728,11.367843 417.245728,13.463132 417.245728,16.053579 
z"/>
<path fill="#292730" opacity="1.000000" stroke="none" 
	d="
M93.126816,94.794174 
	C91.861984,95.898834 90.750595,96.634132 89.639214,97.369431 
	C89.392410,97.075195 89.145607,96.780960 88.898804,96.486732 
	C90.411629,92.152969 91.804832,87.770905 93.521591,83.519493 
	C93.949623,82.459534 95.344398,81.330154 96.440323,81.157814 
	C97.198738,81.038551 98.651207,82.333595 99.026909,83.295959 
	C100.705025,87.594475 102.107697,92.000519 103.649681,96.483521 
	C100.053642,95.769577 96.666962,95.097198 93.126816,94.794174 
z"/>
<path fill="#3A3A37" opacity="1.000000" stroke="none" 
	d="
M182.270172,97.714447 
	C182.270142,93.624023 182.270142,89.991524 182.270142,86.419716 
	C184.776459,86.263168 187.092819,85.578636 189.027237,86.161591 
	C190.695465,86.664330 192.691528,88.373833 193.186005,89.970085 
	C194.053055,92.769043 193.359222,95.721558 189.955978,96.780304 
	C188.799850,97.139984 187.437637,96.837326 186.657394,96.837326 
	C185.748642,98.621735 184.886002,100.315575 184.023376,102.009422 
	C183.438980,100.730408 182.854584,99.451393 182.270172,97.714447 
z"/>
<path fill="#21182B" opacity="1.000000" stroke="none" 
	d="
M172.098526,92.226418 
	C171.663467,94.187958 171.230133,95.713905 170.796783,97.239861 
	C170.125977,97.089371 169.455154,96.938889 168.784348,96.788399 
	C168.784348,95.052620 168.984039,93.283592 168.702911,91.594612 
	C168.555023,90.706078 167.566513,89.957474 166.957581,89.145676 
	C166.342194,89.978905 165.541321,90.734238 165.151627,91.662239 
	C164.432938,93.373688 163.955597,95.186478 163.377701,96.957047 
	C162.891602,94.937141 162.279633,92.936760 161.962357,90.890671 
	C161.739899,89.455978 161.919418,87.958954 161.919418,86.719330 
	C166.576996,86.487526 170.889709,86.019211 175.172043,86.214928 
	C176.450577,86.273361 178.390610,88.004288 178.713196,89.296928 
	C179.292389,91.617851 178.876633,94.187073 178.876633,96.739182 
	C174.230820,97.495796 176.403717,94.038017 175.773270,92.396919 
	C175.347809,91.289444 174.752670,90.247147 174.233444,89.175690 
	C173.522369,90.047401 172.811310,90.919113 172.098526,92.226418 
z"/>
<path fill="#292730" opacity="1.000000" stroke="none" 
	d="
M150.117615,96.077400 
	C149.759964,94.420425 149.573364,93.022385 149.756363,91.674530 
	C149.958557,90.185356 150.499405,88.742157 150.997620,86.888863 
	C157.622604,84.382484 159.410767,86.442169 158.503799,96.744858 
	C155.842651,96.617165 153.147141,96.487816 150.117615,96.077400 
M151.417740,88.532623 
	C152.558960,89.034973 153.700195,89.537323 154.841431,90.039673 
	C154.991028,89.555809 155.140640,89.071938 155.290237,88.588074 
	C154.310974,88.442963 153.331696,88.297852 151.417740,88.532623 
z"/>
<path fill="#1F2528" opacity="1.000000" stroke="none" 
	d="
M134.427063,96.693382 
	C131.546112,96.911438 129.061417,96.911438 126.192848,96.911438 
	C126.192848,91.852180 126.192848,86.793678 126.192848,81.366325 
	C128.794266,81.366325 131.648041,81.366325 134.501801,81.366325 
	C134.641327,81.879608 134.780869,82.392899 134.920395,82.906181 
	C133.023117,83.493942 131.125854,84.081703 127.957253,85.063316 
	C129.806564,85.999725 130.819260,86.462631 131.780869,87.014549 
	C132.613373,87.492363 133.387909,88.071175 134.188065,88.605347 
	C133.318420,89.069595 132.467728,89.882553 131.575500,89.930984 
	C129.156464,90.062317 127.212006,90.301605 128.193909,92.856102 
	C130.047104,95.687775 134.656754,91.356049 134.427063,96.693382 
z"/>
<path fill="#22202B" opacity="1.000000" stroke="none" 
	d="
M210.308044,91.995758 
	C208.552078,92.071762 207.192215,92.145905 205.832336,92.220047 
	C205.809021,92.643089 205.785706,93.066124 205.762390,93.489166 
	C207.483231,93.673523 209.204086,93.857872 210.924927,94.042221 
	C211.115677,94.501793 211.306427,94.961357 211.497177,95.420921 
	C209.601349,95.897079 207.050217,97.356712 205.956985,96.628288 
	C204.130829,95.411545 202.296173,92.853249 202.168823,90.756233 
	C201.974197,87.551353 204.632904,85.733704 207.868851,86.151993 
	C209.275803,86.333862 210.815384,87.537300 211.708710,88.719559 
	C212.111984,89.253258 211.083191,90.869049 210.308044,91.995758 
z"/>
<path fill="#292730" opacity="1.000000" stroke="none" 
	d="
M142.744431,88.889542 
	C144.124359,87.563507 145.250076,86.522629 146.375778,85.481750 
	C146.792511,85.725014 147.209229,85.968285 147.625961,86.211548 
	C145.073471,89.690872 143.389618,93.146988 148.350510,96.425545 
	C147.858521,96.738617 147.366516,97.051697 146.874512,97.364777 
	C145.178696,96.446449 143.482864,95.528130 142.002289,94.726364 
	C140.538544,95.569756 138.946075,96.487312 137.353622,97.404869 
	C137.139679,97.095497 136.925751,96.786125 136.711807,96.476753 
	C137.729813,94.818939 138.747818,93.161133 139.782684,91.475876 
	C138.828735,89.875999 137.902847,88.323174 136.976944,86.770348 
	C137.252655,86.415703 137.528351,86.061058 137.804062,85.706421 
	C139.366104,86.862511 140.928146,88.018600 142.744431,88.889542 
z"/>
<path fill="#21182B" opacity="1.000000" stroke="none" 
	d="
M106.840904,86.127930 
	C107.861961,86.254135 108.437164,86.574432 109.044388,86.655800 
	C111.193268,86.943794 114.833977,86.542839 115.227539,87.502655 
	C116.350548,90.241364 116.154335,93.521027 116.477119,96.587868 
	C115.832756,96.781006 115.188385,96.974136 114.544022,97.167267 
	C114.050644,95.756531 113.624847,94.317238 113.044395,92.943283 
	C112.491447,91.634415 111.777130,90.393723 111.133743,89.123062 
	C110.454536,90.404388 109.715836,91.658470 109.113014,92.974777 
	C108.520668,94.268219 108.066299,95.624847 107.551376,96.953743 
	C107.007408,95.657753 106.086159,94.385292 106.003548,93.060532 
	C105.862267,90.795090 106.246315,88.496887 106.840904,86.127930 
z"/>
<path fill="#3E4F53" opacity="1.000000" stroke="none" 
	d="
M199.531387,96.363190 
	C198.288361,96.190353 196.408661,95.674294 196.370453,95.046204 
	C196.108353,90.737549 196.138824,86.401482 196.321350,82.084656 
	C196.352463,81.348785 197.566620,80.662941 198.234222,79.953987 
	C198.761932,80.801903 199.719940,81.637207 199.745209,82.499832 
	C199.876587,86.985428 199.770340,91.477997 199.531387,96.363190 
z"/>
<path fill="#FFE609" opacity="1.000000" stroke="none" 
	d="
M720.905701,53.056274 
	C721.561768,56.221680 721.981384,59.320354 721.838013,62.392761 
	C721.791687,63.386360 720.267456,64.310997 719.419250,65.267181 
	C718.940552,64.984589 718.461853,64.701996 717.983154,64.419403 
	C717.983154,61.475502 717.785400,58.510475 718.096436,55.599812 
	C718.197571,54.653275 719.628174,53.848801 720.905701,53.056274 
z"/>
<path fill="#201749" opacity="1.000000" stroke="none" 
	d="
M68.071999,182.220551 
	C71.313515,181.924255 74.462090,181.924255 77.610664,181.924255 
	C70.025650,185.653732 76.271133,193.030228 72.010193,197.793945 
	C72.010193,194.361771 71.957047,190.928482 72.029594,187.497849 
	C72.075104,185.345230 72.109138,183.354385 68.610603,183.736084 
	C68.109734,183.330658 68.044395,182.923767 68.071999,182.220551 
z"/>
<path fill="#006BFF" opacity="1.000000" stroke="none" 
	d="
M69.118149,139.883972 
	C70.863129,139.518005 72.625755,139.032120 74.388420,139.032013 
	C602.190308,138.999252 1129.992188,138.999771 1657.794067,139.011078 
	C1659.282593,139.011124 1660.771240,139.179459 1662.574463,139.522736 
	C1662.889282,139.776291 1662.858765,139.992950 1662.473145,140.007156 
	C1661.421265,140.014282 1660.754883,140.000992 1660.088501,140.000992 
	C1131.222656,140.000076 602.356812,139.999893 73.490944,140.006668 
	C71.995018,140.006699 70.499100,140.108353 69.003174,140.162537 
	C69.003174,140.162537 69.135811,139.990952 69.118149,139.883972 
z"/>
<path fill="#162522" opacity="1.000000" stroke="none" 
	d="
M69.186050,127.629173 
	C69.185387,123.230530 69.185387,119.292061 69.185387,115.263718 
	C72.029594,115.263718 74.352272,115.263718 76.674957,115.263718 
	C76.714722,115.561974 76.754494,115.860229 76.794258,116.158485 
	C75.143051,116.416672 73.491844,116.674850 71.468681,116.991196 
	C71.468681,118.423546 71.468681,119.947311 71.468681,121.748466 
	C73.088280,121.871567 74.689003,121.993233 76.289726,122.114899 
	C76.351006,122.389397 76.412292,122.663895 76.473572,122.938393 
	C74.805733,123.341461 73.137894,123.744537 71.294548,124.190025 
	C71.144096,126.378937 70.990692,128.610870 70.837280,130.842804 
	C70.530052,130.878647 70.222816,130.914474 69.915588,130.950317 
	C69.672623,129.996658 69.429665,129.043015 69.186050,127.629173 
z"/>
<path fill="#162522" opacity="1.000000" stroke="none" 
	d="
M133.914474,122.935738 
	C134.102417,123.608978 134.172226,123.930756 134.214828,124.256088 
	C134.658569,127.644997 133.520676,130.489456 130.007660,130.803177 
	C128.169983,130.967316 124.753944,129.434906 124.527222,128.210220 
	C124.104080,125.924522 124.732056,122.530060 126.295708,121.002792 
	C128.702240,118.652260 131.767166,119.659691 133.914474,122.935738 
M127.967789,129.367065 
	C130.885498,130.058334 132.603867,128.565491 132.588547,125.924454 
	C132.580246,124.492470 131.338409,122.516174 130.082611,121.831314 
	C129.204330,121.352348 126.192093,122.580276 126.160408,123.157188 
	C126.053528,125.103416 126.852119,127.099373 127.967789,129.367065 
z"/>
<path fill="#171D17" opacity="1.000000" stroke="none" 
	d="
M106.814240,130.973541 
	C105.822029,130.807434 105.006920,130.770294 104.655838,130.347672 
	C102.918922,128.256866 102.769516,119.869415 102.407784,119.254784 
	C103.597946,120.266228 104.788101,121.277664 105.978264,122.289108 
	C104.099556,123.350464 104.078926,126.523331 107.663498,129.786423 
	C107.768852,129.882355 107.369385,130.532837 106.814240,130.973541 
z"/>
<path fill="#162522" opacity="1.000000" stroke="none" 
	d="
M98.060402,121.716476 
	C96.786194,121.814224 95.744904,122.027542 94.793869,122.222374 
	C94.612045,125.979256 102.527527,124.658455 98.925720,129.580673 
	C98.056427,130.768646 95.269753,130.553604 93.364815,130.983749 
	C93.290062,130.501312 93.215317,130.018875 93.140572,129.536438 
	C94.703308,129.339706 96.266052,129.142960 97.906288,128.936478 
	C97.732780,125.205612 90.578247,126.299438 93.712021,120.870522 
	C95.125999,121.167290 96.709663,121.499672 98.060402,121.716476 
z"/>
<path fill="#006BFF" opacity="1.000000" stroke="none" 
	d="
M1662.881836,240.116058 
	C1661.136963,240.482071 1659.374390,240.967896 1657.611694,240.968002 
	C1129.809692,241.000763 602.007751,241.000229 74.205742,240.988922 
	C72.717178,240.988892 71.228622,240.820572 69.425346,240.477325 
	C69.110634,240.223785 69.141319,240.007126 69.526978,239.992889 
	C70.579048,239.985718 71.245453,239.998993 71.911865,239.998993 
	C600.777649,239.999924 1129.643433,240.000092 1658.509155,239.993317 
	C1660.005127,239.993286 1661.500977,239.891617 1662.996948,239.837418 
	C1662.996948,239.837418 1662.864136,240.009018 1662.881836,240.116058 
z"/>
<path fill="#142B3D" opacity="1.000000" stroke="none" 
	d="
M85.925583,261.856201 
	C86.358978,257.944977 83.961578,254.360977 86.123795,251.003342 
	C86.992020,249.655075 88.423676,248.669632 90.159874,246.969849 
	C89.439247,250.139587 89.036110,251.912857 88.632965,253.686111 
	C90.458740,253.299973 92.284508,252.913834 93.349113,252.688690 
	C93.986343,253.469788 94.934883,254.632492 95.903389,255.819672 
	C93.902527,257.873962 93.929070,261.431946 97.292183,264.225739 
	C97.017815,264.590912 96.743446,264.956116 96.469078,265.321289 
	C95.288132,264.249481 93.836060,263.346954 93.023346,262.045258 
	C92.498062,261.203827 93.226532,259.649628 92.820885,258.646179 
	C92.295982,257.347717 91.200813,256.279785 90.351181,255.112579 
	C89.522057,256.339539 88.291885,257.467804 87.959976,258.817047 
	C87.489319,260.730255 87.680496,262.806244 86.406136,264.821136 
	C86.246262,263.976929 86.086395,263.132721 85.925583,261.856201 
z"/>
<path fill="#162522" opacity="1.000000" stroke="none" 
	d="
M76.369370,256.797394 
	C74.670921,257.458191 73.072311,257.744934 71.315147,258.060120 
	C71.148842,260.349152 70.985901,262.592041 70.822952,264.834900 
	C70.489388,264.847229 70.155815,264.859528 69.822250,264.871857 
	C69.822250,259.808838 69.822250,254.745819 69.822250,249.298065 
	C71.866386,249.298065 74.260376,249.298065 76.654366,249.298065 
	C76.719849,249.586502 76.785332,249.874939 76.850815,250.163361 
	C75.124489,250.426773 73.398155,250.690170 71.345932,251.003296 
	C71.261688,252.376160 71.173508,253.813095 71.070160,255.497162 
	C73.008644,255.829697 74.738922,256.126495 76.369370,256.797394 
z"/>
<path fill="#171D17" opacity="1.000000" stroke="none" 
	d="
M127.454239,255.497894 
	C130.171021,255.277542 133.307343,254.447876 134.803375,255.653519 
	C136.108719,256.705536 136.304169,260.320953 135.584778,262.290558 
	C135.088272,263.649963 132.180511,264.896271 130.379456,264.856964 
	C126.217033,264.766144 124.953827,260.786377 127.454239,255.497894 
M134.891510,260.256195 
	C133.686630,258.602509 132.481750,256.948853 131.276871,255.295166 
	C130.057709,256.252380 127.936813,257.120697 127.831573,258.187775 
	C127.675186,259.773376 128.944672,261.499603 129.607300,263.165985 
	C131.327438,262.445251 133.047592,261.724548 134.891510,260.256195 
z"/>
<path fill="#142B3D" opacity="1.000000" stroke="none" 
	d="
M101.863510,260.984863 
	C101.673988,262.555450 101.486076,263.696503 101.298172,264.837585 
	C100.972786,264.797150 100.647408,264.756744 100.322021,264.716309 
	C100.322021,259.258667 100.322021,253.800995 100.322021,248.343338 
	C100.634201,248.276550 100.946381,248.209763 101.258560,248.142975 
	C101.556519,250.141891 101.854477,252.140823 102.216263,254.567978 
	C104.063866,254.834091 106.175140,255.138184 108.286407,255.442276 
	C104.468773,255.072601 101.545166,255.778778 101.863510,260.984863 
z"/>
<path fill="#006BFF" opacity="1.000000" stroke="none" 
	d="
M69.118103,206.883911 
	C70.863144,206.517944 72.625786,206.032150 74.388466,206.032028 
	C602.190308,205.999268 1129.992065,205.999771 1657.793945,206.011078 
	C1659.282593,206.011108 1660.771118,206.179413 1662.574463,206.522675 
	C1662.889282,206.776215 1662.858643,206.992935 1662.473145,207.007156 
	C1661.421265,207.014297 1660.754883,207.001007 1660.088501,207.001007 
	C1131.222656,207.000076 602.356812,206.999908 73.490944,207.006699 
	C71.995026,207.006714 70.499100,207.108383 69.003181,207.162567 
	C69.003181,207.162552 69.135727,206.990891 69.118103,206.883911 
z"/>
<path fill="#006BFF" opacity="1.000000" stroke="none" 
	d="
M1662.881836,173.116058 
	C1661.136841,173.482071 1659.374268,173.967896 1657.611572,173.968002 
	C1129.809570,174.000763 602.007629,174.000229 74.205681,173.988922 
	C72.717133,173.988892 71.228592,173.820572 69.425331,173.477310 
	C69.110619,173.223770 69.141304,173.007126 69.526970,172.992889 
	C70.579079,172.985718 71.245514,172.998993 71.911957,172.998993 
	C600.777710,172.999924 1129.643433,173.000092 1658.509155,172.993301 
	C1660.005127,172.993286 1661.500977,172.891602 1662.996948,172.837433 
	C1662.996948,172.837433 1662.864136,173.009003 1662.881836,173.116058 
z"/>
<path fill="#1F2528" opacity="1.000000" stroke="none" 
	d="
M136.636612,187.282913 
	C140.215652,186.473984 143.142532,187.448654 143.463531,190.742554 
	C143.671219,192.873550 142.346283,196.277679 140.684723,197.140472 
	C139.127029,197.949341 135.322662,196.886612 134.105408,195.367035 
	C131.819168,192.513000 133.020050,189.421295 136.636612,187.282913 
M141.227661,189.688797 
	C138.469116,187.587921 136.161377,188.027527 135.228058,191.378204 
	C134.881088,192.623886 135.691940,194.573074 136.616791,195.650238 
	C137.178741,196.304733 139.824921,196.346268 140.054169,195.900940 
	C140.926620,194.206116 141.196732,192.201218 141.227661,189.688797 
z"/>
<path fill="#162522" opacity="1.000000" stroke="none" 
	d="
M90.051102,196.581635 
	C89.408089,196.054123 88.319084,195.110703 88.274765,194.120514 
	C88.113266,190.512726 88.343498,186.844849 82.644287,189.492157 
	C82.533966,187.217957 82.446648,185.418076 82.359337,183.618210 
	C82.390717,183.615433 82.422096,183.612671 82.453484,183.609909 
	C82.556358,184.874420 82.659233,186.138931 82.763176,187.416489 
	C89.528168,186.377579 90.109444,187.090454 90.051102,196.581635 
z"/>
<path fill="#0573E9" opacity="1.000000" stroke="none" 
	d="
M114.063911,190.110413 
	C112.989075,189.541275 111.914246,188.972122 111.677834,188.846939 
	C113.137871,186.904602 114.660706,184.878723 116.542427,182.375412 
	C116.542427,187.097488 116.542427,191.652313 116.542427,196.207138 
	C116.060478,195.995605 115.578522,195.784088 115.035873,194.854431 
	C114.671417,192.794342 114.367668,191.452377 114.063911,190.110413 
z"/>
<path fill="#0573E9" opacity="1.000000" stroke="none" 
	d="
M106.525810,194.469513 
	C106.705299,192.030289 107.095093,189.822876 107.484886,187.615463 
	C107.931030,187.714447 108.377182,187.813416 108.823326,187.912399 
	C108.628670,190.704025 108.434006,193.495636 108.219719,196.568771 
	C107.696037,195.909607 107.216072,195.305450 106.525810,194.469513 
z"/>
<path fill="#0573E9" opacity="1.000000" stroke="none" 
	d="
M111.642914,197.904449 
	C111.058640,197.510712 110.760811,197.088425 110.462982,196.666153 
	C110.730339,196.538330 110.997696,196.410507 111.265045,196.282669 
	C111.486473,196.813751 111.707909,197.344849 111.642914,197.904449 
z"/>
<path fill="#162522" opacity="1.000000" stroke="none" 
	d="
M114.063766,190.495255 
	C114.367668,191.452377 114.671417,192.794342 114.970520,194.512741 
	C114.665115,193.552811 114.364365,192.216461 114.063766,190.495255 
z"/>
<path fill="#2DB200" opacity="1.000000" stroke="none" 
	d="
M1662.740723,239.536102 
	C1661.500977,239.891617 1660.005127,239.993286 1658.509155,239.993317 
	C1129.643433,240.000092 600.777649,239.999924 71.911865,239.998993 
	C71.245453,239.998993 70.579048,239.985718 69.457901,239.908051 
	C70.565369,239.558304 72.127548,239.034576 73.689758,239.034470 
	C601.966248,238.999252 1130.242798,238.999847 1658.519287,239.009689 
	C1659.841064,239.009705 1661.162720,239.156525 1662.740723,239.536102 
z"/>
<path fill="#2DB200" opacity="1.000000" stroke="none" 
	d="
M69.259422,207.463867 
	C70.499100,207.108383 71.995026,207.006714 73.490944,207.006699 
	C602.356812,206.999908 1131.222656,207.000076 1660.088501,207.001007 
	C1660.754883,207.001007 1661.421265,207.014297 1662.542236,207.091980 
	C1661.434814,207.441711 1659.872559,207.965393 1658.310425,207.965500 
	C1130.033936,208.000717 601.757385,208.000168 73.480904,207.990326 
	C72.159157,207.990295 70.837410,207.843445 69.259422,207.463867 
z"/>
<path fill="#1F2528" opacity="1.000000" stroke="none" 
	d="
M160.688278,224.482147 
	C160.456589,223.216461 160.335495,222.313232 160.214401,221.410004 
	C160.509796,221.318161 160.805191,221.226318 161.100586,221.134476 
	C161.907013,223.326355 162.713425,225.518250 163.850372,228.608521 
	C165.101166,225.529556 166.029190,223.245117 166.957214,220.960678 
	C167.355942,220.965897 167.754654,220.971100 168.153381,220.976303 
	C168.904816,223.650970 169.656265,226.325623 170.407715,229.000290 
	C170.072678,229.115372 169.737640,229.230453 169.402603,229.345535 
	C168.791397,227.887604 168.180191,226.429672 167.366898,224.489685 
	C166.306870,227.145294 165.352356,229.536545 164.397842,231.927795 
	C163.985168,231.954254 163.572495,231.980698 163.159836,232.007141 
	C162.372849,229.619629 161.585861,227.232117 160.688278,224.482147 
z"/>
<path fill="#22202B" opacity="1.000000" stroke="none" 
	d="
M101.551361,227.281647 
	C101.352547,228.866180 101.269402,230.106537 101.187019,231.347015 
	C93.259605,232.269470 91.591202,230.076843 94.474854,221.300354 
	C94.618759,223.085815 94.485527,224.955673 94.995224,226.629761 
	C95.395096,227.943161 96.590134,229.014450 97.431900,230.193314 
	C98.376724,228.952179 99.657089,227.833420 100.167534,226.433853 
	C100.633751,225.155548 100.266380,223.573212 101.382660,222.023911 
	C101.477448,223.661774 101.572235,225.299622 101.551361,227.281647 
z"/>
<path fill="#279B42" opacity="1.000000" stroke="none" 
	d="
M150.722107,230.994156 
	C149.280273,229.112823 147.266281,227.145569 147.442139,225.398773 
	C147.574585,224.083298 150.434006,222.225296 152.219284,222.052505 
	C156.852448,221.604050 157.287369,222.222336 158.005081,225.198944 
	C155.872635,224.838638 153.318161,224.407013 150.763687,223.975403 
	C151.053482,226.260559 151.343262,228.545746 151.649399,230.959839 
	C152.380722,230.903351 151.735809,230.953171 150.722107,230.994156 
z"/>
<path fill="#21182B" opacity="1.000000" stroke="none" 
	d="
M72.212433,218.007233 
	C71.571564,219.524734 71.315849,220.891785 71.011177,222.520569 
	C73.212517,222.848801 74.889679,223.098877 76.566849,223.348953 
	C76.580048,223.613052 76.593254,223.877151 76.606453,224.141251 
	C74.971695,224.502487 73.336937,224.863708 71.489571,225.271927 
	C71.232826,227.323410 70.976173,229.374207 70.719513,231.425018 
	C70.511108,231.406509 70.302696,231.387985 70.094284,231.369476 
	C70.094284,226.484940 70.094284,221.600403 70.094284,216.336594 
	C72.318474,216.336594 74.414345,216.336594 76.510223,216.336594 
	C76.547546,216.648926 76.584869,216.961243 76.622200,217.273575 
	C75.280655,217.467987 73.939117,217.662399 72.212433,218.007233 
z"/>
<path fill="#22202B" opacity="1.000000" stroke="none" 
	d="
M88.898186,229.146362 
	C87.426483,232.416901 84.150719,233.122803 82.211235,231.211945 
	C80.609734,229.634079 79.980553,225.775253 80.690590,223.473083 
	C81.576797,220.599701 84.660873,220.427887 87.438278,222.029434 
	C84.570320,222.931381 80.537933,222.513199 81.338310,227.171967 
	C81.957176,230.774185 84.674789,230.704651 87.980858,229.350296 
	C88.467865,229.066071 88.898186,229.146362 88.898186,229.146362 
z"/>
<path fill="#279B42" opacity="1.000000" stroke="none" 
	d="
M89.102844,228.849762 
	C88.898186,229.146362 88.467865,229.066071 88.249191,229.069275 
	C88.452896,227.778702 88.875282,226.484940 89.297668,225.191177 
	C89.738342,225.366455 90.179008,225.541748 90.619659,225.717041 
	C90.182281,226.662415 89.744896,227.607788 89.102844,228.849762 
z"/>
<path fill="#279B42" opacity="1.000000" stroke="none" 
	d="
M157.571228,230.638672 
	C156.662262,230.867081 155.923462,230.816879 155.184647,230.766678 
	C155.583542,230.142441 155.982437,229.518204 156.381332,228.893967 
	C156.834671,229.382660 157.288025,229.871353 157.571228,230.638672 
z"/>
<path fill="#2DB200" opacity="1.000000" stroke="none" 
	d="
M69.259415,140.463867 
	C70.499100,140.108353 71.995018,140.006699 73.490944,140.006668 
	C602.356812,139.999893 1131.222656,140.000076 1660.088501,140.000992 
	C1660.754883,140.000992 1661.421265,140.014282 1662.542236,140.091965 
	C1661.434814,140.441711 1659.872559,140.965408 1658.310425,140.965515 
	C1130.033936,141.000717 601.757446,141.000168 73.480911,140.990341 
	C72.159157,140.990311 70.837410,140.843475 69.259415,140.463867 
z"/>
<path fill="#2DB200" opacity="1.000000" stroke="none" 
	d="
M1662.740723,172.536072 
	C1661.500977,172.891602 1660.005127,172.993286 1658.509155,172.993301 
	C1129.643433,173.000092 600.777710,172.999924 71.911957,172.998993 
	C71.245514,172.998993 70.579079,172.985718 69.457901,172.908051 
	C70.565353,172.558304 72.127525,172.034592 73.689728,172.034485 
	C601.966187,171.999268 1130.242676,171.999832 1658.519165,172.009659 
	C1659.840942,172.009689 1661.162720,172.156479 1662.740723,172.536072 
z"/>
<path fill="#21182B" opacity="1.000000" stroke="none" 
	d="
M89.876801,157.330963 
	C87.695656,158.716934 85.434135,159.713684 82.076523,161.193527 
	C84.326332,162.217224 86.272240,163.102661 88.197449,163.978668 
	C85.973740,165.976700 82.907509,165.620499 81.812950,162.804367 
	C80.967453,160.629028 81.561424,156.763977 83.089027,155.065323 
	C85.299202,152.607666 88.218140,153.817535 89.876801,157.330963 
z"/>
<path fill="#21182B" opacity="1.000000" stroke="none" 
	d="
M73.774399,164.978760 
	C72.065697,164.748566 70.747780,164.474747 69.429855,164.200928 
	C69.469948,163.883804 69.510048,163.566666 69.550148,163.249542 
	C70.112999,163.184494 70.697479,163.194687 71.234634,163.040283 
	C72.825935,162.582825 74.398582,162.060471 75.978523,161.563492 
	C74.925919,160.284103 74.040085,158.800980 72.782730,157.771713 
	C70.751411,156.108871 67.530197,154.661682 69.504158,151.674393 
	C70.640320,149.954987 73.724197,149.522598 76.965996,148.036636 
	C76.389778,150.172470 76.382202,150.622208 76.237831,150.671524 
	C74.492508,151.267746 72.727013,151.804840 70.966766,152.357346 
	C72.270615,153.813385 73.375214,155.540359 74.916359,156.673737 
	C79.224991,159.842331 79.080673,162.227310 73.774399,164.978760 
z"/>
<path fill="#279B42" opacity="1.000000" stroke="none" 
	d="
M134.959351,154.019699 
	C135.582870,152.097565 136.206390,150.175430 137.192886,147.134323 
	C138.100616,148.823212 138.895630,149.634995 138.927002,150.475311 
	C139.069290,154.286133 139.243881,158.131012 138.847824,161.904968 
	C138.730865,163.019363 136.783539,163.941666 135.386795,164.696167 
	C135.070206,163.927963 135.041824,163.415573 135.173767,162.562408 
	C135.548553,160.228912 135.763031,158.236206 136.215683,156.154572 
	C135.955688,155.383652 135.457520,154.701675 134.959351,154.019699 
z"/>
<path fill="#292730" opacity="1.000000" stroke="none" 
	d="
M168.512939,156.718536 
	C168.317535,155.748367 168.256500,155.132065 168.195450,154.515747 
	C168.532364,154.384216 168.869263,154.252686 169.206177,154.121155 
	C170.092194,156.297302 170.978210,158.473450 172.182602,161.431580 
	C173.399139,158.432312 174.280472,156.259460 175.161804,154.086609 
	C175.590469,154.072098 176.019135,154.057571 176.447800,154.043045 
	C177.096176,156.713638 177.744553,159.384232 178.392944,162.054825 
	C178.071762,162.151352 177.750580,162.247879 177.429398,162.344421 
	C176.890488,160.865738 176.351562,159.387070 175.577057,157.261993 
	C174.434570,160.176605 173.493225,162.578125 172.551865,164.979630 
	C172.127365,165.019196 171.702850,165.058762 171.278351,165.098328 
	C170.401337,162.423019 169.524338,159.747696 168.512939,156.718536 
z"/>
<path fill="#22202B" opacity="1.000000" stroke="none" 
	d="
M111.898621,162.145508 
	C110.428139,165.417816 107.151535,166.122559 105.212242,164.212524 
	C103.610641,162.635101 102.981674,158.776184 103.691383,156.473709 
	C104.577324,153.599472 107.660950,153.427338 110.438599,155.029556 
	C107.571106,155.931808 103.538193,155.512787 104.338448,160.171707 
	C104.957222,163.774124 107.674759,163.704483 110.980896,162.350052 
	C111.467972,162.065750 111.898621,162.145508 111.898621,162.145508 
z"/>
<path fill="#22202B" opacity="1.000000" stroke="none" 
	d="
M164.899704,162.144043 
	C163.430313,165.418213 160.152496,166.122131 158.212891,164.213470 
	C156.610580,162.636719 155.988068,158.787460 156.683304,156.470963 
	C157.582962,153.473465 160.696487,153.634766 163.420410,154.955460 
	C160.572861,155.933517 156.536942,155.510773 157.338196,160.171280 
	C157.957611,163.774048 160.674515,163.704544 163.981110,162.349762 
	C164.468430,162.065186 164.899704,162.144043 164.899704,162.144043 
z"/>
<path fill="#22202B" opacity="1.000000" stroke="none" 
	d="
M92.367432,161.447845 
	C92.339760,155.256805 94.281891,153.557968 98.762917,154.520721 
	C97.314651,156.126907 94.934853,157.780579 94.275726,159.955673 
	C93.990074,160.898285 97.250404,162.915436 99.224304,164.745041 
	C96.514801,165.481049 94.146774,164.884247 92.367432,161.447845 
z"/>
<path fill="#22202B" opacity="1.000000" stroke="none" 
	d="
M134.574799,154.000748 
	C135.457520,154.701675 135.955688,155.383652 135.811035,156.042358 
	C132.272583,155.393784 130.187088,156.097717 130.137344,159.467255 
	C130.087616,162.836945 132.018051,163.699707 135.013458,162.903198 
	C135.041824,163.415573 135.070206,163.927963 134.952942,164.667419 
	C131.109268,165.433136 128.499359,164.015717 128.373703,160.180496 
	C128.255127,156.561768 129.951431,153.886902 134.574799,154.000748 
z"/>
<path fill="#279B42" opacity="1.000000" stroke="none" 
	d="
M112.103333,161.849060 
	C111.898621,162.145508 111.467972,162.065750 111.249184,162.069000 
	C111.452614,160.778564 111.874832,159.484879 112.297043,158.191208 
	C112.737694,158.366318 113.178352,158.541428 113.619003,158.716537 
	C113.182022,159.661896 112.745033,160.607269 112.103333,161.849060 
z"/>
<path fill="#279B42" opacity="1.000000" stroke="none" 
	d="
M165.104553,161.847839 
	C164.899704,162.144043 164.468430,162.065186 164.249405,162.068695 
	C164.452438,160.778320 164.874496,159.484436 165.296539,158.190552 
	C165.737244,158.365463 166.177948,158.540375 166.618652,158.715271 
	C166.182236,159.660721 165.745819,160.606171 165.104553,161.847839 
z"/>
<path fill="#F6FBF6" opacity="1.000000" stroke="none" 
	d="
M105.520355,16.118469 
	C110.201912,16.794502 112.683250,18.919296 111.984749,23.557476 
	C111.368141,27.651833 108.197426,29.089647 100.286606,28.800661 
	C100.286606,24.748434 100.286606,20.677593 100.286606,16.081327 
	C101.896317,16.081327 103.494987,16.081327 105.520355,16.118469 
z"/>
<path fill="#F5FAF5" opacity="1.000000" stroke="none" 
	d="
M390.185730,26.037075 
	C395.411163,26.116886 397.343292,29.333811 397.747314,33.430222 
	C398.193146,37.950390 398.023407,42.668598 393.330017,45.262436 
	C389.872131,47.173477 386.823669,45.963703 384.725952,42.789478 
	C381.086029,37.281540 383.712219,28.817717 390.185730,26.037075 
z"/>
<path fill="#F9FCF9" opacity="1.000000" stroke="none" 
	d="
M135.869995,45.474518 
	C130.816528,41.724880 129.280502,35.507618 131.853928,30.417406 
	C134.099869,25.974987 139.379700,24.601849 143.141006,27.481941 
	C146.210281,29.832138 147.552734,36.895481 145.572464,41.307117 
	C143.753723,45.358906 140.517014,46.752304 135.869995,45.474518 
z"/>
<path fill="#F6FBF6" opacity="1.000000" stroke="none" 
	d="
M440.847717,26.955698 
	C441.917725,28.932375 442.668030,30.654503 443.613586,32.824883 
	C438.890594,32.824883 434.969757,32.824883 431.045197,32.824883 
	C431.528900,26.641815 434.327850,24.842699 440.847717,26.955698 
z"/>
<path fill="#F5FAF5" opacity="1.000000" stroke="none" 
	d="
M304.792908,45.683094 
	C301.304047,41.130348 302.373077,37.999672 307.387573,37.079716 
	C309.320038,36.725185 311.290283,36.576744 313.242828,36.330204 
	C314.620117,43.118870 312.014618,46.183342 304.792908,45.683094 
z"/>
<path fill="#FFFFFF" opacity="1.000000" stroke="none" 
	d="
M151.885086,88.342682 
	C153.331696,88.297852 154.310974,88.442963 155.290237,88.588074 
	C155.140640,89.071938 154.991028,89.555809 154.841431,90.039673 
	C153.700195,89.537323 152.558960,89.034973 151.885086,88.342682 
z"/>
<path fill="#0573E9" opacity="1.000000" stroke="none" 
	d="
M127.636124,129.221680 
	C126.852119,127.099373 126.053528,125.103416 126.160408,123.157188 
	C126.192093,122.580276 129.204330,121.352348 130.082611,121.831314 
	C131.338409,122.516174 132.580246,124.492470 132.588547,125.924454 
	C132.603867,128.565491 130.885498,130.058334 127.636124,129.221680 
z"/>
<path fill="#0573E9" opacity="1.000000" stroke="none" 
	d="
M134.829620,260.630005 
	C133.047592,261.724548 131.327438,262.445251 129.607300,263.165985 
	C128.944672,261.499603 127.675186,259.773376 127.831573,258.187775 
	C127.936813,257.120697 130.057709,256.252380 131.276871,255.295166 
	C132.481750,256.948853 133.686630,258.602509 134.829620,260.630005 
z"/>
<path fill="#007BFF" opacity="1.000000" stroke="none" 
	d="
M141.459808,190.000488 
	C141.196732,192.201218 140.926620,194.206116 140.054169,195.900940 
	C139.824921,196.346268 137.178741,196.304733 136.616791,195.650238 
	C135.691940,194.573074 134.881088,192.623886 135.228058,191.378204 
	C136.161377,188.027527 138.469116,187.587921 141.459808,190.000488 
z"/>
<path fill="#28A745" opacity="1.000000" stroke="none" 
	d="
M135.173767,162.562408 
	C132.018051,163.699707 130.087616,162.836945 130.137344,159.467255 
	C130.187088,156.097717 132.272583,155.393784 135.572845,156.131287 
	C135.763031,158.236206 135.548553,160.228912 135.173767,162.562408 
z"/>
</svg>